HIERARCHY
ROOT Hips
{
	OFFSET 260.916687 89.964378 456.710297
	CHANNELS 6 Xposition Yposition Zposition Zrotation Yrotation Xrotation 
	JOINT LeftUpLeg
	{
		OFFSET 0.103458 1.857819 10.548503
		CHANNELS 3 Zrotation Yrotation Xrotation
		JOINT LeftLeg
		{
			OFFSET 43.500000 -0.000034 0.000000
			CHANNELS 3 Zrotation Yrotation Xrotation
			JOINT LeftFoot
			{
				OFFSET 42.372185 0.000023 -0.000012
				CHANNELS 3 Zrotation Yrotation Xrotation
				JOINT LeftToe
				{
					OFFSET 17.299986 -0.000006 0.000006
					CHANNELS 3 Zrotation Yrotation Xrotation
					End Site
					{
						OFFSET 0.000000 0.000000 0.000000
					}
				}
			}
		}
	}
	JOINT RightUpLeg
	{
		OFFSET 0.103458 1.857829 -10.548508
		CHANNELS 3 Zrotation Yrotation Xrotation
		JOINT RightLeg
		{
			OFFSET 43.500046 -0.000027 0.000013
			CHANNELS 3 Zrotation Yrotation Xrotation
			JOINT RightFoot
			{
				OFFSET 42.372257 0.000000 -0.000004
				CHANNELS 3 Zrotation Yrotation Xrotation
				JOINT RightToe
				{
					OFFSET 17.299995 -0.000005 0.000013
					CHANNELS 3 Zrotation Yrotation Xrotation
					End Site
					{
						OFFSET 0.000000 0.000000 0.000000
					}
				}
			}
		}
	}
	JOINT Spine
	{
		OFFSET 6.901965 -2.603728 -0.000004
		CHANNELS 3 Zrotation Yrotation Xrotation
		JOINT Spine1
		{
			OFFSET 12.588104 -0.000006 -0.000004
			CHANNELS 3 Zrotation Yrotation Xrotation
			JOINT Spine2
			{
				OFFSET 12.343203 0.000011 0.000026
				CHANNELS 3 Zrotation Yrotation Xrotation
				JOINT Neck
				{
					OFFSET 25.832888 0.000002 -0.000025
					CHANNELS 3 Zrotation Yrotation Xrotation
					JOINT Head
					{
						OFFSET 11.766613 -0.000025 0.000014
						CHANNELS 3 Zrotation Yrotation Xrotation
						End Site
						{
							OFFSET 0.000000 0.000000 0.000000
						}
					}
				}
				JOINT LeftShoulder
				{
					OFFSET 19.745892 -1.480383 6.000091
					CHANNELS 3 Zrotation Yrotation Xrotation
					JOINT LeftArm
					{
						OFFSET 11.284117 -0.000032 -0.000012
						CHANNELS 3 Zrotation Yrotation Xrotation
						JOINT LeftForeArm
						{
							OFFSET 33.000050 0.000008 0.000040
							CHANNELS 3 Zrotation Yrotation Xrotation
							JOINT LeftHand
							{
								OFFSET 25.199986 0.000029 0.000006
								CHANNELS 3 Zrotation Yrotation Xrotation
								End Site
								{
									OFFSET 0.000000 0.000000 0.000000
								}
							}
						}
					}
				}
				JOINT RightShoulder
				{
					OFFSET 19.746086 -1.480392 -6.000091
					CHANNELS 3 Zrotation Yrotation Xrotation
					JOINT RightArm
					{
						OFFSET 11.284138 -0.000036 -0.000015
						CHANNELS 3 Zrotation Yrotation Xrotation
						JOINT RightForeArm
						{
							OFFSET 33.000099 0.000026 0.000006
							CHANNELS 3 Zrotation Yrotation Xrotation
							JOINT RightHand
							{
								OFFSET 25.199776 0.000139 0.000412
								CHANNELS 3 Zrotation Yrotation Xrotation
								End Site
								{
									OFFSET 0.000000 0.000000 0.000000
								}
							}
						}
					}
				}
			}
		}
	}
}
MOTION
Frames: 7
Frame Time: 0.033333
260.916687 89.964378 456.710297 92.521394 -1.199392 73.399542 165.540358 6.046296 166.325884 -26.166479 1.921405 -5.917071 86.173232 4.495942 2.720602 21.454553 0.003092 -0.000000 161.443214 13.198500 -170.307789 -23.032622 -3.853417 3.022261 77.880283 0.933967 11.433307 21.454558 -0.003112 -0.000018 6.411828 -0.961470 0.236517 2.807384 -1.928359 0.443553 2.489094 -1.925463 0.455651 7.393137 -6.508176 -5.911705 -33.568420 -0.197979 -7.295810 -47.349436 -84.572236 -134.894515 7.591766 21.589559 -31.171460 -64.949669 -24.502696 2.949836 3.875155 -13.913110 15.011598 31.457153 88.500667 -146.860255 -0.775328 -13.124871 26.780612 -50.594596 15.494796 -1.832705 0.578095 5.872426 -11.813452 
260.917389 89.962357 456.685699 92.529802 -1.202979 73.415176 165.519908 6.053111 166.330420 -26.162474 1.924664 -5.912267 86.158663 4.495944 2.724543 21.454550 0.003105 -0.000001 161.412888 13.206497 -170.306286 -23.057955 -3.853426 3.026359 77.880276 0.928458 11.422478 21.454558 -0.003108 -0.000017 6.415474 -0.963853 0.236514 2.814662 -1.933139 0.443548 2.496398 -1.930230 0.455657 7.438163 -6.498320 -5.918954 -33.572661 -0.203682 -7.296830 -47.394010 -84.573929 -134.849832 7.596296 21.584204 -31.171470 -64.943788 -24.502684 2.949846 3.875158 -13.906761 15.007619 31.655055 88.500803 -146.662985 -0.768100 -13.131972 26.777246 -50.609581 15.494800 -1.832702 0.586667 5.865743 -11.819753 
260.920288 89.948799 456.545288 92.581466 -1.225238 73.502070 165.403290 6.101808 166.385512 -26.130156 1.937059 -5.906386 86.060151 4.505310 2.780758 21.454550 0.003085 0.000001 161.234088 13.250794 -170.327009 -23.208484 -3.848140 3.064864 77.880276 0.883065 11.353864 21.454560 -0.003108 -0.000017 6.433982 -0.981773 0.236513 2.851695 -1.968975 0.443558 2.533399 -1.966106 0.455657 7.708943 -6.374773 -5.957438 -33.660996 -0.292078 -7.259193 -47.547450 -84.559033 -134.698202 7.647644 21.541143 -31.161171 -64.895273 -24.502689 2.949843 3.875159 -13.877652 15.028796 33.389653 88.506950 -144.932762 -0.719463 -13.183398 26.744051 -50.694327 15.494802 -1.832697 0.603315 5.811157 -11.837409 
260.923096 89.929947 456.414093 92.616539 -1.248379 73.571130 165.279076 6.143003 166.588819 -26.137046 1.903746 -5.993897 86.004362 4.574618 2.823155 21.454555 0.003088 0.000000 161.058224 13.268896 -170.420788 -23.363543 -3.831803 3.138733 77.880276 0.815180 11.297710 21.454558 -0.003108 -0.000015 6.450545 -0.998871 0.236525 2.884792 -2.003195 0.443556 2.566481 -2.000350 0.455653 7.969623 -6.196669 -5.959507 -33.851982 -0.441240 -7.143558 -47.918596 -84.508237 -134.332991 7.676738 21.485221 -31.164408 -64.835700 -24.504839 2.949847 3.875158 -13.838761 15.121554 35.311368 88.514307 -143.015514 -0.679438 -13.237211 26.732585 -50.757246 15.494800 -1.832707 0.582793 5.803528 -11.855892 
260.928406 89.910072 456.298401 92.653183 -1.254104 73.601866 165.172648 6.177089 166.767374 -26.173558 1.867168 -6.082855 86.012497 4.619449 2.742357 21.454553 0.003084 -0.000002 160.892291 13.277998 -170.573169 -23.520632 -3.820068 3.225082 77.880276 0.741621 11.255031 21.454558 -0.003112 -0.000018 6.467914 -1.017021 0.236524 2.919425 -2.039621 0.447856 2.601126 -2.036741 0.460169 8.288593 -6.000258 -5.901236 -34.280859 -0.652486 -6.927050 -48.607857 -84.433064 -133.653169 7.666257 21.472931 -31.305240 -64.867597 -24.467653 2.949846 3.874952 -13.845371 15.246403 36.729373 88.492990 -141.601747 -0.634999 -13.324529 26.759966 -50.804699 15.494800 -1.832699 0.529598 5.846470 -11.870080 
260.934906 89.887848 456.193115 92.688618 -1.249134 73.615431 165.069403 6.204693 166.865647 -26.232885 1.845182 -6.138138 86.008447 4.652471 2.718471 21.454551 0.003087 0.000000 160.731017 13.278388 -170.731015 -23.684275 -3.831482 3.310391 77.885760 0.672371 11.226584 21.454558 -0.003106 -0.000016 6.484118 -1.036124 0.242278 2.951715 -2.078035 0.458627 2.633387 -2.075092 0.471179 8.760898 -5.720610 -5.759575 -35.075374 -0.954329 -6.553738 -49.299462 -84.364168 -132.970341 7.650933 21.477304 -31.480420 -64.949894 -24.431769 2.949845 3.904418 -13.842755 15.232471 37.460145 88.462903 -140.873567 -0.591420 -13.433860 26.813149 -50.844475 15.494802 -1.832703 0.484406 5.887887 -11.855098 
260.944305 89.866661 456.097504 92.720679 -1.233072 73.616243 164.984135 6.232297 166.918417 -26.286982 1.834167 -6.179600 85.992280 4.683069 2.729623 21.454557 0.003093 0.000001 160.592186 13.275609 -170.887973 -23.830964 -3.841874 3.385157 77.892290 0.612057 11.203529 21.454558 -0.003098 -0.000016 6.499739 -1.057501 0.250610 2.982744 -2.121045 0.474458 2.664424 -2.118005 0.487258 9.235029 -5.476353 -5.554804 -35.922994 -1.159841 -6.167962 -50.014118 -84.301781 -132.263512 7.633956 21.484544 -31.617560 -65.028209 -24.409134 2.949843 3.883806 -13.814260 15.159839 37.744664 88.453006 -140.590415 -0.564847 -13.518148 26.843605 -50.848136 15.497433 -1.832695 0.440732 5.984577 -11.748065 
